<?xml version="1.0" standalone="no"?>
<!DOCTYPE svg PUBLIC "-//W3C//DTD SVG 20010904//EN"
 "http://www.w3.org/TR/2001/REC-SVG-20010904/DTD/svg10.dtd">
<svg version="1.0" xmlns="http://www.w3.org/2000/svg"
 width="900.000000pt" height="900.000000pt" viewBox="0 0 900.000000 900.000000"
 preserveAspectRatio="xMidYMid meet">
<metadata>
Created by potrace 1.11, written by Peter Selinger 2001-2013
</metadata>
<g transform="translate(0.000000,900.000000) scale(0.100000,-0.100000)"
fill="#000000" stroke="none">
<path d="M4427 8544 c-2 -1 -206 -14 -289 -18 -16 0 -28 -3 -28 -6 0 -3 -12
-5 -27 -5 -27 -1 -109 -11 -163 -20 -14 -2 -42 -7 -64 -10 -21 -3 -77 -14
-125 -25 -47 -10 -97 -21 -111 -24 -124 -26 -374 -101 -397 -119 -7 -5 -13 -7
-13 -3 0 6 -62 -17 -137 -50 -21 -9 -46 -19 -56 -21 -49 -9 -509 -239 -527
-262 -3 -4 -20 -13 -37 -20 -18 -8 -33 -16 -33 -20 0 -4 -17 -15 -37 -26 -21
-11 -47 -28 -57 -37 -11 -10 -23 -18 -28 -18 -4 0 -49 -30 -99 -66 -50 -36
-97 -68 -105 -71 -7 -3 -11 -9 -8 -14 3 -5 1 -9 -3 -9 -9 0 -103 -68 -126 -92
-7 -7 -31 -26 -51 -43 -35 -27 -65 -55 -230 -213 -112 -107 -264 -284 -385
-447 -45 -60 -85 -115 -90 -120 -4 -6 -29 -44 -56 -85 -26 -41 -64 -100 -83
-130 -20 -30 -37 -60 -38 -66 -1 -7 -18 -37 -38 -68 -20 -31 -33 -56 -29 -56
3 0 0 -8 -8 -17 -8 -10 -30 -52 -49 -93 -19 -41 -38 -76 -42 -78 -5 -2 -8 -9
-8 -16 0 -7 -14 -44 -31 -82 -34 -75 -51 -114 -55 -129 -1 -5 -12 -35 -24 -65
-60 -152 -156 -477 -145 -488 3 -3 1 -10 -4 -16 -6 -7 -12 -25 -15 -41 -11
-56 -45 -250 -50 -280 -2 -16 -5 -30 -6 -30 -3 0 -12 -100 -14 -142 0 -24 -3
-43 -6 -43 -3 0 -6 -19 -7 -43 0 -23 -4 -85 -7 -137 -7 -95 -7 -113 -3 -160 1
-14 -1 -30 -6 -37 -4 -6 -3 -14 3 -18 7 -4 7 -12 0 -26 -6 -10 -7 -19 -3 -19
4 0 8 -39 9 -88 2 -151 14 -305 31 -402 3 -19 7 -48 9 -64 3 -30 24 -160 30
-186 2 -8 8 -34 14 -58 6 -24 8 -47 5 -53 -4 -5 -1 -9 6 -9 7 0 10 -2 7 -5 -5
-6 30 -147 68 -270 10 -33 19 -63 20 -67 1 -5 3 -10 4 -13 1 -3 3 -8 5 -12 1
-5 4 -15 8 -23 3 -8 14 -42 25 -75 11 -33 37 -100 57 -150 49 -121 56 -139 56
-145 0 -3 6 -12 13 -20 7 -8 21 -35 31 -60 30 -70 138 -275 174 -330 9 -14 23
-37 31 -52 7 -16 17 -28 22 -28 4 0 8 -5 8 -11 0 -6 13 -30 30 -54 17 -24 30
-46 30 -49 0 -3 6 -14 14 -23 8 -10 49 -65 91 -123 43 -58 84 -111 93 -117 9
-7 13 -13 9 -13 -3 0 4 -11 16 -23 12 -13 38 -43 57 -67 81 -99 214 -237 354
-368 84 -77 320 -272 331 -272 4 0 13 -7 21 -15 8 -7 54 -40 102 -72 48 -32
89 -60 92 -63 5 -5 40 -27 115 -70 17 -9 55 -32 85 -50 30 -18 116 -63 190
-100 116 -59 176 -85 338 -152 15 -6 33 -12 40 -14 7 -1 36 -11 65 -23 57 -22
87 -33 102 -37 6 -1 71 -21 145 -43 74 -22 146 -42 160 -45 14 -2 25 -5 25 -6
0 -1 15 -3 33 -5 19 -2 41 -7 50 -11 19 -8 20 -8 142 -29 47 -8 96 -17 110
-20 14 -2 48 -7 75 -9 28 -3 68 -8 90 -10 133 -16 195 -18 430 -19 230 0 330
4 455 18 19 3 53 7 75 9 50 6 101 13 140 20 66 11 91 16 115 21 14 3 36 7 50
10 14 3 36 7 50 10 14 3 34 8 45 10 58 13 188 48 278 76 56 18 107 34 112 35
13 3 125 43 150 54 11 5 61 25 110 45 87 35 164 69 195 85 8 5 53 28 100 51
47 24 87 46 90 49 3 3 16 11 30 18 14 6 48 25 75 42 28 16 62 35 78 42 15 7
27 16 27 20 0 4 7 8 15 8 8 0 15 5 15 10 0 6 7 10 15 10 9 0 18 7 21 15 4 8
11 15 16 15 37 0 414 298 566 448 24 23 48 42 54 42 6 0 9 2 7 5 -3 2 34 45
83 95 48 49 86 90 83 90 -3 0 8 12 23 28 33 32 139 162 205 250 56 74 177 250
177 257 0 3 15 26 34 52 19 27 34 50 33 53 0 3 11 24 26 46 14 23 47 84 73
135 27 52 53 97 58 101 6 4 8 8 4 8 -3 0 7 28 24 62 17 35 49 110 73 168 52
130 57 143 61 155 2 6 24 71 49 145 25 74 47 147 48 162 1 16 5 28 9 28 5 0 7
3 6 8 -1 4 4 25 10 47 6 22 13 51 16 65 3 14 8 36 11 50 11 48 35 172 39 206
3 18 7 37 9 41 3 5 6 28 8 53 1 25 5 49 7 54 3 5 7 29 9 55 2 25 6 66 8 91 23
263 24 592 1 795 -2 17 -7 55 -10 85 -6 49 -10 84 -20 145 -2 11 -6 39 -10 62
-4 23 -14 75 -22 115 -8 40 -17 87 -20 103 -17 90 -90 336 -141 475 -20 52
-42 113 -50 135 -19 51 -135 308 -142 315 -3 3 -17 28 -30 55 -69 140 -242
417 -345 550 -25 33 -56 73 -68 89 -13 17 -32 40 -43 52 -11 12 -28 34 -38 48
-72 97 -393 416 -514 509 -15 12 -32 26 -38 33 -5 6 -55 44 -110 85 -55 41
-105 79 -111 84 -10 8 -54 37 -149 97 -11 7 -38 25 -60 39 -22 14 -47 29 -55
32 -8 4 -28 15 -45 25 -105 65 -435 230 -470 236 -9 2 -182 67 -230 87 -52 21
-249 78 -257 73 -4 -3 -8 0 -8 5 0 6 -3 10 -7 9 -5 -1 -28 5 -53 12 -25 7 -49
13 -53 12 -4 -1 -42 6 -85 17 -42 11 -95 22 -116 25 -21 4 -48 8 -60 11 -83
19 -220 35 -421 50 -90 7 -402 14 -408 9z"/>
</g>
</svg>
